<?xml version="1.0" standalone="no"?>
<!DOCTYPE svg PUBLIC "-//W3C//DTD SVG 20010904//EN"
 "http://www.w3.org/TR/2001/REC-SVG-20010904/DTD/svg10.dtd">
<svg version="1.0" xmlns="http://www.w3.org/2000/svg"
 width="640.000000pt" height="640.000000pt" viewBox="0 0 640.000000 640.000000"
 preserveAspectRatio="xMidYMid meet">
<metadata>
Created by potrace 1.11, written by Peter Selinger 2001-2013
</metadata>
<g transform="translate(0.000000,640.000000) scale(0.100000,-0.100000)"
fill="#000000" stroke="none">
<path d="M186 4598 c-3 -13 -6 -636 -6 -1385 0 -1337 0 -1362 19 -1373 25 -13
1134 -13 1316 0 275 20 199 25 -450 30 l-670 5 -3 1373 -2 1372 -99 0 c-94 0
-99 -1 -105 -22z"/>
<path d="M3286 4598 c-3 -13 -6 -638 -6 -1389 0 -1237 1 -1367 16 -1373 21 -8
593 -8 727 1 80 4 107 9 107 20 0 11 -58 13 -320 13 l-320 0 0 1375 0 1375
-99 0 c-94 0 -99 -1 -105 -22z"/>
<path d="M5473 4563 c-17 -32 -146 -286 -287 -565 l-257 -508 47 -90 c26 -49
50 -90 53 -90 5 0 647 1268 659 1301 2 5 -38 9 -91 9 l-94 0 -30 -57z"/>
<path d="M1298 3924 c-24 -24 -3 -31 111 -38 184 -10 275 -48 387 -160 121
-122 176 -266 175 -466 0 -309 -122 -526 -366 -654 -38 -19 -31 -19 80 -1 303
49 497 318 497 690 0 192 -57 340 -176 460 -133 134 -224 165 -511 172 -104 3
-193 2 -197 -3z"/>
<path d="M4337 3314 c-4 -4 -7 -90 -7 -190 l0 -184 53 -102 c30 -57 79 -150
110 -208 31 -58 76 -143 101 -190 l45 -85 158 -3 c162 -3 203 1 203 18 0 6
-32 10 -74 10 l-73 0 -68 128 c-38 70 -76 141 -85 157 -9 17 -87 163 -173 326
-168 316 -179 334 -190 323z"/>
<path d="M5647 3238 c-24 -46 -68 -126 -96 -179 l-51 -96 0 -560 c0 -502 2
-561 16 -567 21 -8 579 -8 722 1 84 4 112 9 112 20 0 11 -58 13 -320 13 l-320
0 0 719 c0 425 -4 722 -9 725 -5 4 -29 -31 -54 -76z"/>
</g>
</svg>
